<svg width="113" height="22" viewBox="0 0 113 22" fill="currentColor"  xmlns="http://www.w3.org/2000/svg">
<g clip-path="url(#clip0_14604_23144)">
<path d="M31.4609 17.9868C31.4609 18.6269 31.9789 19.1458 32.6179 19.1458C33.2569 19.1458 33.7749 18.6269 33.7749 17.9868V5.92552C33.7749 5.28547 33.2569 4.7666 32.6179 4.7666C31.9789 4.7666 31.4609 5.28547 31.4609 5.92552V17.9868Z" />
<path d="M38.2281 17.9858C38.2281 18.6259 37.7101 19.1448 37.0712 19.1448C36.4322 19.1448 35.9141 18.6259 35.9141 17.9858V9.57298C35.9141 8.93293 36.4322 8.41406 37.0712 8.41406C37.7101 8.41406 38.2281 8.93293 38.2281 9.57298V17.9858Z" />
<path d="M63.7656 17.9858C63.7656 18.6259 64.2836 19.1448 64.9226 19.1448C65.5616 19.1448 66.0797 18.6259 66.0797 17.9858V9.57298C66.0797 8.93293 65.5616 8.41406 64.9226 8.41406C64.2836 8.41406 63.7656 8.93293 63.7656 9.57298V17.9858Z" />
<path d="M72.8784 19.3807C71.7642 19.3807 70.8215 19.1446 70.0501 18.6725C69.2788 18.2003 68.686 17.5493 68.2718 16.7195C67.8719 15.8896 67.6719 14.9238 67.6719 13.8222C67.6719 12.7205 67.879 11.7547 68.2932 10.9249C68.7217 10.0807 69.3288 9.42974 70.1144 8.9719C70.9 8.49974 71.8499 8.26367 72.9641 8.26367C73.9068 8.26367 74.7353 8.44251 75.4494 8.80021C76.1637 9.1579 76.7135 9.65866 77.0993 10.3025C77.3539 10.7123 77.5099 11.1514 77.5989 11.6071C77.7203 12.2295 77.186 12.7491 76.5529 12.7491C75.9198 12.7491 75.4615 12.2146 75.2483 11.6176C75.1517 11.3469 74.9996 11.1002 74.7638 10.9034C74.3496 10.5314 73.6997 10.3454 72.814 10.3454C71.7857 10.3454 71.05 10.6387 70.6072 11.2253C70.1787 11.7976 69.9644 12.6561 69.9644 13.8007C69.9644 14.9597 70.1787 15.8324 70.6072 16.4191C71.05 16.9913 71.7857 17.2775 72.814 17.2775C73.6997 17.2775 74.3496 17.0986 74.7638 16.7409C74.9949 16.5404 75.1463 16.2945 75.2436 16.0259C75.4597 15.4299 75.9198 14.8952 76.5529 14.8952C77.186 14.8952 77.7196 15.4152 77.5932 16.0366C77.5021 16.4837 77.3459 16.9145 77.0993 17.3204C76.6994 17.9642 76.1351 18.4722 75.4066 18.8441C74.6924 19.2018 73.8497 19.3807 72.8784 19.3807Z" />
<path fill-rule="evenodd" clip-rule="evenodd" d="M81.6026 18.6725C82.4024 19.1303 83.3453 19.3593 84.4308 19.3593C85.5164 19.3593 86.4448 19.1303 87.2162 18.6725C88.0018 18.2003 88.6017 17.5493 89.016 16.7195C89.4445 15.8753 89.6587 14.9024 89.6587 13.8007C89.6587 12.6991 89.4445 11.7333 89.016 10.9034C88.6017 10.0736 88.0018 9.42974 87.2162 8.9719C86.4448 8.49974 85.5164 8.26367 84.4308 8.26367C83.3453 8.26367 82.4024 8.49974 81.6026 8.9719C80.8027 9.42974 80.1885 10.0736 79.7599 10.9034C79.3315 11.7333 79.1172 12.6991 79.1172 13.8007C79.1172 14.9024 79.3315 15.8753 79.7599 16.7195C80.1885 17.5493 80.8027 18.2003 81.6026 18.6725ZM86.7663 16.462C86.3234 17.02 85.5449 17.299 84.4308 17.299C83.3024 17.299 82.5167 17.02 82.074 16.462C81.6311 15.8896 81.4098 15.0026 81.4098 13.8007C81.4098 12.5989 81.6311 11.719 82.074 11.161C82.5167 10.603 83.3024 10.324 84.4308 10.324C85.5449 10.324 86.3234 10.603 86.7663 11.161C87.209 11.719 87.4304 12.5989 87.4304 13.8007C87.4304 15.0026 87.209 15.8896 86.7663 16.462Z" />
<path d="M101.303 17.9857C101.303 18.6258 100.785 19.1446 100.146 19.1446C99.5071 19.1446 98.9891 18.6258 98.9891 17.9857V12.9423C98.9891 11.9979 98.8105 11.3184 98.4534 10.9034C98.0963 10.4742 97.425 10.2596 96.4394 10.2596C95.8109 10.2596 95.2966 10.3526 94.8966 10.5386C94.4967 10.7103 94.1968 10.9964 93.9968 11.397C93.7969 11.7833 93.6969 12.3128 93.6969 12.9852V17.9857C93.6969 18.6258 93.1789 19.1446 92.5398 19.1446C91.9008 19.1446 91.3828 18.6258 91.3828 17.9857V9.54063C91.3828 8.95391 91.8577 8.47828 92.4434 8.47828C93.0292 8.47828 93.5041 8.95391 93.5041 9.54063V10.4742H93.6112C93.7683 10.0879 94.0039 9.7302 94.3182 9.40113C94.6324 9.07205 95.0324 8.80021 95.518 8.58559C96.018 8.37098 96.6108 8.26367 97.2964 8.26367C98.2248 8.26367 98.9819 8.44251 99.5676 8.80021C100.153 9.1579 100.589 9.65151 100.874 10.281C101.16 10.9106 101.303 11.6331 101.303 12.4486V17.9857Z" />
<path d="M107.938 19.3593C106.381 19.3593 105.203 19.0516 104.403 18.4364C103.804 17.9651 103.472 17.3129 103.316 16.6043C103.184 16.0024 103.702 15.4962 104.317 15.4962C104.933 15.4962 105.332 16.0224 105.548 16.5995C105.574 16.6696 105.606 16.7384 105.646 16.8053C105.803 17.0343 106.06 17.2059 106.417 17.3204C106.788 17.4205 107.31 17.4707 107.981 17.4707C108.552 17.4707 108.981 17.4278 109.267 17.3419C109.567 17.2418 109.767 17.1058 109.867 16.9341C109.967 16.7624 110.016 16.5478 110.016 16.2903C110.016 15.861 109.867 15.5605 109.567 15.3889C109.267 15.2029 108.731 15.0383 107.96 14.8952L106.288 14.6163C105.66 14.4875 105.11 14.3086 104.639 14.0797C104.182 13.8365 103.824 13.5074 103.567 13.0924C103.325 12.6632 103.203 12.1268 103.203 11.4829C103.203 10.5243 103.582 9.75166 104.339 9.16505C105.096 8.56413 106.167 8.26367 107.553 8.26367C108.395 8.26367 109.145 8.39959 109.802 8.67143C110.46 8.94329 110.981 9.35104 111.366 9.89474C111.614 10.2435 111.761 10.6272 111.846 11.028C111.971 11.6253 111.451 12.1268 110.841 12.1268C110.232 12.1268 109.828 11.6014 109.589 11.0396C109.582 11.0228 109.574 11.006 109.567 10.9893C109.452 10.7317 109.238 10.5314 108.924 10.3884C108.61 10.2453 108.131 10.1737 107.488 10.1737C106.646 10.1737 106.088 10.281 105.817 10.4957C105.546 10.7103 105.41 11.025 105.41 11.4399C105.41 11.8548 105.531 12.1482 105.774 12.3199C106.031 12.4772 106.531 12.6346 107.274 12.792L109.095 13.1355C109.781 13.2642 110.352 13.4573 110.809 13.7149C111.266 13.9724 111.609 14.3086 111.838 14.7235C112.081 15.1384 112.202 15.6321 112.202 16.2045C112.202 17.2059 111.824 17.9857 111.067 18.5437C110.323 19.0874 109.281 19.3593 107.938 19.3593Z" />
<path fill-rule="evenodd" clip-rule="evenodd" d="M57.1792 19.3593C56.0223 19.3593 55.0581 19.1303 54.2868 18.6725C53.5155 18.2003 52.944 17.5493 52.5727 16.7195C52.2013 15.8753 52.0156 14.9024 52.0156 13.8007C52.0156 12.6991 52.2228 11.7333 52.637 10.9034C53.0655 10.0736 53.6654 9.42974 54.4367 8.9719C55.208 8.49974 56.1223 8.26367 57.1792 8.26367C58.1362 8.26367 58.9791 8.44967 59.7075 8.82167C60.4503 9.17936 61.0217 9.70158 61.4216 10.3884C61.8359 11.0752 62.043 11.905 62.043 12.8778C62.043 13.0684 62.0389 13.2615 62.0293 13.455C62.0031 13.9789 61.552 14.3588 61.0283 14.3588H54.1866C54.21 14.9274 54.2935 15.4209 54.4367 15.8396C54.6224 16.326 54.9367 16.6909 55.3795 16.9341C55.8223 17.1773 56.4294 17.299 57.2007 17.299C58.1006 17.299 58.7362 17.1558 59.1077 16.8697C59.2002 16.7985 59.2786 16.7213 59.3447 16.6392C59.7422 16.1456 60.1778 15.5605 60.811 15.5605C61.4441 15.5605 61.9876 16.0855 61.82 16.697C61.7268 17.0376 61.5791 17.3622 61.3574 17.6638C60.9574 18.1931 60.4003 18.6081 59.6861 18.9086C58.9862 19.209 58.1505 19.3593 57.1792 19.3593ZM54.801 11.0537C54.4683 11.5018 54.2692 12.0885 54.2037 12.8135H59.8289C59.8543 12.2524 59.7782 11.7874 59.6005 11.4185C59.4147 11.0035 59.1077 10.696 58.6791 10.4957C58.2648 10.2954 57.7434 10.1952 57.115 10.1952C55.9865 10.1952 55.2152 10.4813 54.801 11.0537Z" />
<path d="M47.9577 17.9867C47.9577 18.6267 48.4757 19.1456 49.1147 19.1456C49.7537 19.1456 50.2718 18.6267 50.2718 17.9867V12.4496C50.2718 11.634 50.1289 10.9116 49.8432 10.282C49.5576 9.65249 49.1219 9.15887 48.5362 8.80119C47.9506 8.44349 47.1936 8.26465 46.2651 8.26465C45.5794 8.26465 44.9867 8.37195 44.4868 8.58656C44.0011 8.80118 43.6012 9.07303 43.2869 9.4021C42.9726 9.73118 42.7369 10.0889 42.5798 10.4752H42.4727V9.54161C42.4727 8.95489 41.9978 8.47926 41.4121 8.47926C40.8264 8.47926 40.3516 8.95489 40.3516 9.54159V17.9867C40.3516 18.6267 40.8696 19.1456 41.5085 19.1456C42.1475 19.1456 42.6655 18.6267 42.6655 17.9867V12.9862C42.6655 12.3137 42.7655 11.7843 42.9655 11.398C43.1655 10.9974 43.4654 10.7112 43.8654 10.5396C44.2654 10.3536 44.7796 10.2606 45.408 10.2606C46.3936 10.2606 47.065 10.4752 47.4221 10.9044C47.7792 11.3193 47.9577 11.9989 47.9577 12.9433V17.9867Z" />
<path d="M38.4049 5.97837C38.4049 6.72333 37.8019 7.32724 37.0582 7.32724C36.3193 7.32724 35.7184 6.73078 35.7117 5.99063L35.711 5.92782C35.7043 5.17794 36.3093 4.56641 37.0579 4.56641C37.8018 4.56641 38.4049 5.17044 38.4049 5.91556V5.97837Z" />
<path d="M66.2407 5.97837C66.2407 6.72333 65.6378 7.32724 64.8941 7.32724C64.1551 7.32724 63.5542 6.73078 63.5475 5.99063L63.5469 5.92782C63.5401 5.17794 64.1451 4.56641 64.8938 4.56641C65.6377 4.56641 66.2407 5.17044 66.2407 5.91556V5.97837Z" />
<path d="M6.49223 5.74205C6.2244 5.47377 5.82803 5.35574 5.45307 5.45231C5.07812 5.53816 4.77816 5.81716 4.66031 6.19273L0.0537315 20.5612C-0.0748243 20.9582 0.0323055 21.3875 0.321556 21.6771C0.535815 21.8917 0.814353 21.9991 1.10361 21.9991C1.21074 21.9991 1.32858 21.9776 1.43571 21.9454L15.791 17.3312C16.1554 17.2132 16.4339 16.9127 16.5302 16.5372C16.6267 16.1616 16.5089 15.7645 16.2411 15.4962L6.49223 5.74205ZM2.80697 19.1984L6.20298 8.58568L13.4021 15.7967L2.80697 19.1984Z" />
<path d="M12.407 8.12541C12.4819 8.6834 12.9533 9.09116 13.4996 9.09116C13.9802 9.09116 14.47 8.982 14.9459 8.91947C16.3279 8.73705 17.3778 7.54594 17.367 6.15095V5.80756C17.367 5.6466 17.4313 5.50711 17.5385 5.39979C17.6456 5.29249 17.7955 5.22811 17.9456 5.22811H19.7667C20.3773 5.22811 20.8701 4.73449 20.8701 4.12284C20.8701 3.51119 20.3773 3.01758 19.7667 3.01758H17.9456C17.2064 3.01758 16.51 3.30731 15.985 3.83311C15.4601 4.35892 15.1708 5.06714 15.1708 5.80756V6.15095C15.1708 6.44068 14.9567 6.68749 14.6674 6.71967L13.3603 6.89137C12.7604 6.96648 12.3319 7.52448 12.407 8.12541Z" />
<path d="M23.1923 9.6704C20.4069 7.535 17.3966 9.4236 16.186 10.722C15.7682 11.162 15.8004 11.8595 16.2396 12.278C16.6852 12.702 17.3803 12.669 17.7929 12.2351C17.8787 12.1385 19.9677 9.97087 21.8532 11.4195C22.3352 11.7951 23.0315 11.6985 23.3959 11.2156C23.7707 10.7328 23.6744 10.0353 23.1923 9.6704Z" />
<path d="M11.1298 5.80738C12.3617 4.86308 13.6045 2.65255 11.9868 0.452752C11.6225 -0.0408612 10.9369 -0.148169 10.4441 0.216676C9.95134 0.581521 9.84422 1.26829 10.2085 1.7619C11.0548 2.91008 10.0906 3.8222 9.77994 4.06901C9.29786 4.44458 9.21216 5.13135 9.5764 5.61423C9.95328 6.10499 10.646 6.16447 11.1298 5.80738Z" />
</g>
<defs>
<clipPath id="clip0_14604_23144">
<rect width="112.2" height="22" fill="white"/>
</clipPath>
</defs>
</svg>
