<svg width="80" height="22" viewBox="0 0 80 22" fill="none" xmlns="http://www.w3.org/2000/svg">
<g clip-path="url(#clip0_14604_23182)">
<path d="M68.6172 12.4817C68.6172 12.1682 68.8898 11.9092 69.2033 11.9092C69.5168 11.9092 69.7758 12.1682 69.7758 12.4817C69.7758 12.7952 69.5031 13.0542 69.2033 13.0542C68.9034 13.0542 68.6172 12.7952 68.6172 12.4817Z" fill="#9CA3AF"/>
<path d="M70.576 11.0232H71.3531V11.3094C71.3531 11.882 71.6666 12.3045 72.3209 12.3045C72.9751 12.3045 73.275 11.8956 73.275 11.2821V7.05664H74.0656V11.3094C74.0656 12.3727 73.3567 13.0269 72.3072 13.0269C71.1895 13.0269 70.5625 12.3181 70.5625 11.2958V11.0095L70.576 11.0232Z" fill="#9CA3AF"/>
<path d="M77.0737 6.97461C78.1914 6.97461 78.9139 7.60162 78.9821 8.62393H78.1779C78.137 8.0378 77.728 7.69703 77.0601 7.69703C76.3241 7.69703 75.847 8.06506 75.847 8.65119C75.847 9.12827 76.1196 9.40088 76.6648 9.53718L77.6326 9.76891C78.5868 9.987 79.0775 10.505 79.0775 11.3364C79.0775 12.3996 78.2596 13.0675 77.0056 13.0675C75.7515 13.0675 75.0155 12.4405 74.9609 11.4318H75.7788C75.7924 11.9907 76.2695 12.3451 77.0056 12.3451C77.7825 12.3451 78.2869 11.9771 78.2869 11.391C78.2869 10.9275 78.0415 10.6413 77.469 10.505L76.5013 10.2869C75.5471 10.0688 75.0428 9.50992 75.0428 8.66481C75.0428 7.65615 75.8606 6.97461 77.0737 6.97461Z" fill="#9CA3AF"/>
<path d="M37.3851 1.09961V9.56429L31.7828 1.09961H29.7109V13.0537H31.7691V4.57545L37.3851 13.0537H39.4433V1.09961H37.3851Z" fill="#9CA3AF"/>
<path d="M48.4131 1.09961V3.02155H43.0835V6.10208H47.8543V7.94224H43.0835V11.1182H48.4131V13.0537H40.9844V1.09961H48.4131Z" fill="#9CA3AF"/>
<path d="M61.8007 1.09961L60.4922 3.02155H64.2815V13.0537H66.3806V3.02155H69.0523L70.3472 1.09961H61.8007Z" fill="#9CA3AF"/>
<path d="M52.8986 8.33789L54.1799 10.2189L52.2443 13.0541H49.6953L52.8986 8.33789Z" fill="#9CA3AF"/>
<path d="M60.4131 13.0538H57.8505L55.0562 8.93728L53.7749 7.05624L49.7266 1.09961H52.2756L55.0562 5.1752L57.8232 1.09961H60.3723L57.6733 5.06616L56.3239 7.05624L60.4131 13.0538Z" fill="#9CA3AF"/>
<path d="M29.7109 14.6416H33.2822V15.105H31.742V19.6168H31.2376V15.105H29.7109V14.6416Z" fill="#9CA3AF"/>
<path d="M33.1172 17.9263C33.1172 16.8768 33.7715 16.1543 34.7392 16.1543C35.707 16.1543 36.2659 16.7949 36.2659 17.7491V17.9808H33.5806C33.6215 18.7987 34.044 19.2758 34.7665 19.2758C35.3117 19.2758 35.6661 19.044 35.8024 18.5942H36.2659C36.0887 19.303 35.5571 19.6846 34.7665 19.6846C33.7715 19.6846 33.1172 18.9759 33.1172 17.9263ZM33.5943 17.6401H35.7888C35.7888 16.9994 35.3662 16.5633 34.7392 16.5633C34.1122 16.5633 33.6896 16.9858 33.6079 17.6401H33.5943Z" fill="#9CA3AF"/>
<path d="M37.0312 19.6165V16.2498H37.4538L37.5083 16.7268C37.6719 16.3724 38.0535 16.1543 38.5307 16.1543C39.0622 16.1543 39.4575 16.427 39.6211 16.8768C39.771 16.4405 40.1799 16.1543 40.7252 16.1543C41.4612 16.1543 41.9382 16.6314 41.9382 17.4083V19.6165H41.4748V17.5174C41.4748 16.9449 41.1477 16.6041 40.6433 16.6041C40.0845 16.6041 39.7437 17.0267 39.7437 17.5447V19.6165H39.2667V17.5038C39.2667 16.9312 38.9395 16.6041 38.4352 16.6041C37.8764 16.6041 37.5356 17.0267 37.5356 17.5311V19.6165H37.0312Z" fill="#9CA3AF"/>
<path d="M42.8906 16.2498H43.3132L43.3678 16.9312C43.5995 16.4133 44.0765 16.1543 44.6491 16.1543C45.6305 16.1543 46.2029 16.9041 46.2029 17.9126C46.2029 18.9213 45.644 19.6846 44.6491 19.6846C44.0765 19.6846 43.6267 19.4393 43.395 18.9486V21.0614H42.9179V16.2361L42.8906 16.2498ZM44.5536 19.2621C45.2897 19.2621 45.7122 18.7032 45.7122 17.9263C45.7122 17.1494 45.2897 16.5906 44.5536 16.5906C43.8176 16.5906 43.3813 17.1494 43.3813 17.9263C43.3813 18.7032 43.8176 19.2621 44.5536 19.2621Z" fill="#9CA3AF"/>
<path d="M46.9844 19.6166V14.8867L47.4614 14.5459V19.6029H46.9844V19.6166Z" fill="#9CA3AF"/>
<path d="M48.3047 18.7032C48.3047 18.0899 48.7818 17.6947 49.5723 17.6401L50.69 17.5447V17.4356C50.69 16.7813 50.2948 16.5633 49.8041 16.5633C49.2179 16.5633 48.8772 16.8222 48.8772 17.2857H48.441C48.441 16.6041 48.9999 16.168 49.8314 16.168C50.6083 16.168 51.1807 16.5633 51.1807 17.4492V19.6166H50.7719L50.7037 19.0304C50.4993 19.453 50.0358 19.7119 49.4633 19.7119C48.7408 19.7119 48.3183 19.3031 48.3183 18.7169L48.3047 18.7032ZM50.6764 18.0899V17.9127L49.6814 17.9945C49.0408 18.049 48.7954 18.3217 48.7954 18.7032C48.7954 19.1122 49.0953 19.3167 49.5587 19.3167C50.2675 19.3167 50.6764 18.826 50.6764 18.0899Z" fill="#9CA3AF"/>
<path d="M52.3534 19.6175V16.6596H51.6719V16.2508H52.3534V15.5146L52.8305 15.1875V16.2508H53.5121V16.6596H52.8305V19.6175H52.3534Z" fill="#9CA3AF"/>
<path d="M53.8516 17.9263C53.8516 16.8768 54.5058 16.1543 55.4736 16.1543C56.4414 16.1543 57.0002 16.7949 57.0002 17.7491V17.9808H54.315C54.3559 18.7987 54.7784 19.2758 55.5009 19.2758C56.0461 19.2758 56.4005 19.044 56.5368 18.5942H57.0002C56.823 19.303 56.2915 19.6846 55.5009 19.6846C54.5058 19.6846 53.8516 18.9759 53.8516 17.9263ZM54.3286 17.6401H56.5231C56.5231 16.9994 56.1006 16.5633 55.4736 16.5633C54.8466 16.5633 54.424 16.9858 54.3423 17.6401H54.3286Z" fill="#9CA3AF"/>
<path d="M57.9401 18.6624C57.9401 19.0576 58.2263 19.2894 58.7034 19.2894C59.2214 19.2894 59.5349 19.0712 59.5349 18.7032C59.5349 18.4306 59.3985 18.267 59.0033 18.1717L58.4308 18.0217C57.8446 17.8718 57.5584 17.5718 57.5584 17.1084C57.5584 16.5223 58.0491 16.1406 58.7715 16.1406C59.494 16.1406 59.9438 16.536 59.9574 17.1493H59.494C59.494 16.7541 59.2077 16.536 58.7578 16.536C58.3081 16.536 58.0218 16.7405 58.0218 17.0948C58.0218 17.3538 58.199 17.531 58.5671 17.6264L59.1395 17.7763C59.7256 17.9263 59.9847 18.1989 59.9847 18.676C59.9847 19.2757 59.4667 19.671 58.7034 19.671C57.9401 19.671 57.4766 19.2621 57.4766 18.6487H57.9401V18.6624Z" fill="#9CA3AF"/>
<path d="M78.4944 18.0047H62.3828L62.9962 17.2959H79.0941L78.4944 18.0047Z" fill="#9CA3AF"/>
<path d="M22.0136 10.9864C22.0136 12.4994 21.7138 13.9443 21.1685 15.2392C19.5055 19.2193 15.5936 22 11.0136 22C4.93432 22 0 17.0793 0 11C0 4.9207 4.93432 0 11.0136 0C14.544 0 17.6927 1.66295 19.71 4.25279H10.8092L12.3631 6.58364H14.3531V13.808L12.1313 10.4411L8.02849 4.25279H5.68401V17.6H8.01486V8.17843L14.3531 17.7472H16.6704V6.58364H21.1003C21.6865 7.93309 22.0136 9.41884 22.0136 10.9864Z" fill="#9CA3AF"/>
</g>
<defs>
<clipPath id="clip0_14604_23182">
<rect width="79.2" height="22" fill="white"/>
</clipPath>
</defs>
</svg>
