<svg width="94" height="22" viewBox="0 0 94 22" fill="none" xmlns="http://www.w3.org/2000/svg">
<g clip-path="url(#clip0_14604_23244)">
<path d="M18.7902 8.10448V15.0191C18.7902 16.4241 18.0682 17.7294 16.8802 18.4764L11.3208 21.9728C11.2034 22.0475 11.0469 21.9621 11.0469 21.8234V19.3762C11.0469 18.9744 11.2461 18.6009 11.5804 18.3768L15.1267 16.0115C15.621 15.6807 15.9198 15.1258 15.9198 14.5318V9.76555C15.9198 9.38496 16.1226 9.03283 16.4534 8.84076L18.2567 7.80214C18.495 7.66698 18.7902 7.83772 18.7902 8.11159V8.10448Z" fill="#9CA3AF"/>
<path d="M18.3608 6.03428L10.5071 10.5693C9.95576 10.8859 9.61786 11.4728 9.61786 12.1095V21.6633C9.61786 21.802 9.46847 21.8874 9.35109 21.8163L2.07368 17.5835C0.789632 16.8366 0 15.4672 0 13.9805V8.19688C0 6.454 0.92835 4.84272 2.44003 3.97128L9.06298 0.144055C9.39377 -0.0480183 9.79926 -0.0480183 10.1301 0.144055L11.7876 1.10086C12.1432 1.30716 12.1432 1.81936 11.7876 2.02565L3.88058 6.58915C3.32926 6.90572 2.99135 7.49261 2.99135 8.1293V13.6282C2.99135 14.2649 3.32926 14.8519 3.88058 15.1685L6.50201 16.6801C6.55893 16.7121 6.62651 16.6729 6.62651 16.6089V11.1455C6.62651 10.0358 7.21695 9.01496 8.17731 8.46009L15.7749 4.07443C16.1305 3.86813 16.5716 3.88592 16.9095 4.11711L18.3928 5.13083C18.7164 5.35136 18.6987 5.83509 18.3571 6.03428H18.3608Z" fill="#9CA3AF"/>
<path d="M27.3438 5.04688H29.8801V11.9358C29.8801 12.5013 29.9575 13.0053 30.1121 13.4481C30.2669 13.8855 30.4962 14.2562 30.8003 14.5602C31.1096 14.8642 31.491 15.0963 31.9444 15.2564C32.3978 15.411 32.9259 15.4884 33.5286 15.4884C34.126 15.4884 34.6515 15.411 35.1049 15.2564C35.5636 15.0963 35.945 14.8642 36.249 14.5602C36.5585 14.2562 36.7904 13.8855 36.9451 13.4481C37.0999 13.0053 37.1772 12.5013 37.1772 11.9358V5.04688H39.7135V12.2399C39.7135 13.0613 39.5749 13.8081 39.2975 14.4802C39.0201 15.1523 38.6173 15.7284 38.0893 16.2084C37.5612 16.6886 36.9131 17.0593 36.145 17.3206C35.3822 17.582 34.5101 17.7127 33.5286 17.7127C32.5472 17.7127 31.6724 17.582 30.9042 17.3206C30.1415 17.0593 29.4961 16.6886 28.968 16.2084C28.4399 15.7284 28.0372 15.1523 27.7598 14.4802C27.4825 13.8081 27.3438 13.0613 27.3438 12.2399V5.04688Z" fill="#9CA3AF"/>
<path d="M41.4688 5.04688H44.0211V17.5526H41.4688V5.04688Z" fill="#9CA3AF"/>
<path d="M45.2109 12.8716C45.2109 12.1194 45.3523 11.442 45.635 10.8393C45.9177 10.2312 46.3071 9.71376 46.8032 9.28704C47.3046 8.85497 47.8967 8.52425 48.5795 8.29489C49.2675 8.0602 50.0117 7.94284 50.8118 7.94284C51.1531 7.94284 51.4892 7.96418 51.82 8.00685C52.156 8.04953 52.476 8.1082 52.78 8.18288C53.0895 8.25756 53.3774 8.34823 53.6442 8.45491C53.9162 8.55626 54.1562 8.66828 54.3643 8.79096V4.27832H56.7326V17.5522H54.3643V16.664C54.1562 16.8081 53.9108 16.9441 53.6281 17.0721C53.3454 17.2002 53.0414 17.3122 52.716 17.4082C52.3906 17.5042 52.0519 17.5789 51.6998 17.6323C51.3532 17.6909 51.0091 17.7203 50.6677 17.7203C49.8677 17.7203 49.1316 17.6029 48.4595 17.3682C47.7926 17.1335 47.2192 16.8028 46.7392 16.3761C46.2591 15.9493 45.883 15.44 45.611 14.8478C45.3444 14.2504 45.2109 13.5916 45.2109 12.8716ZM47.6994 12.8716C47.6994 13.2503 47.774 13.6077 47.9233 13.9437C48.0781 14.2798 48.2968 14.5758 48.5795 14.8318C48.8674 15.0826 49.2115 15.2826 49.6116 15.4319C50.0169 15.5759 50.4704 15.648 50.9717 15.648C51.2918 15.648 51.6118 15.6186 51.9319 15.56C52.2519 15.496 52.5587 15.408 52.8521 15.2959C53.1507 15.1839 53.4282 15.0478 53.6841 14.8879C53.9456 14.7278 54.1722 14.5491 54.3643 14.3517V11.0792C54.1242 10.8873 53.8709 10.7246 53.6042 10.5912C53.3374 10.4579 53.0654 10.3485 52.7881 10.2632C52.5106 10.1778 52.2306 10.1165 51.9479 10.0791C51.6652 10.0365 51.3905 10.0151 51.1238 10.0151C50.5797 10.0151 50.0943 10.0898 49.6676 10.2392C49.2462 10.3832 48.8888 10.5832 48.5954 10.8393C48.3074 11.0953 48.086 11.3967 47.9313 11.7434C47.7767 12.0901 47.6994 12.4661 47.6994 12.8716Z" fill="#9CA3AF"/>
<path d="M58.1641 12.7991C58.1641 12.159 58.2947 11.5483 58.5561 10.9668C58.8175 10.3801 59.1934 9.86266 59.6843 9.4146C60.175 8.96654 60.775 8.60915 61.4845 8.34244C62.1993 8.07574 63.01 7.94238 63.9168 7.94238C64.8183 7.94238 65.6291 8.07841 66.3492 8.35045C67.0746 8.61715 67.6881 8.9852 68.1895 9.45461C68.6962 9.924 69.0829 10.4761 69.3496 11.1108C69.6217 11.7456 69.7576 12.4257 69.7576 13.1512C69.7576 13.2418 69.755 13.3405 69.7497 13.4472C69.7497 13.5485 69.7443 13.6419 69.7336 13.7273H60.8044C60.9057 14.01 61.0684 14.2687 61.2925 14.5033C61.5218 14.738 61.8072 14.9408 62.1486 15.1114C62.4899 15.2821 62.8847 15.4154 63.3327 15.5114C63.7808 15.6021 64.2769 15.6475 64.8209 15.6475C65.365 15.6475 65.9064 15.5915 66.4452 15.4794C66.984 15.3621 67.4987 15.2154 67.9894 15.0394L68.7895 16.8476C68.4802 16.9917 68.1655 17.1196 67.8454 17.2317C67.5307 17.3384 67.2 17.4291 66.8533 17.5038C66.5119 17.5731 66.1518 17.6264 65.7731 17.6638C65.3997 17.7011 65.005 17.7198 64.5889 17.7198C63.5274 17.7198 62.5966 17.5918 61.7965 17.3357C60.9964 17.0797 60.327 16.7304 59.7882 16.2876C59.2495 15.8449 58.8441 15.3248 58.5721 14.7274C58.3 14.13 58.1641 13.4872 58.1641 12.7991ZM67.2453 11.8789C67.16 11.6176 67.0266 11.3749 66.8453 11.1508C66.6693 10.9215 66.4478 10.7241 66.1812 10.5588C65.9144 10.3881 65.6051 10.2547 65.253 10.1587C64.901 10.0627 64.5142 10.0147 64.0928 10.0147C63.6448 10.0147 63.2367 10.0654 62.8686 10.1667C62.5006 10.268 62.178 10.4041 61.9005 10.5748C61.6231 10.7455 61.3911 10.9428 61.2045 11.1669C61.0231 11.3908 60.8898 11.6282 60.8044 11.8789H67.2453Z" fill="#9CA3AF"/>
<path d="M70.7188 12.8551C70.7188 12.1616 70.844 11.5162 71.0948 10.9188C71.3508 10.3161 71.7215 9.79598 72.2069 9.35859C72.6976 8.91586 73.2951 8.56914 73.9992 8.31844C74.7087 8.06774 75.5167 7.94238 76.4236 7.94238C76.8183 7.94238 77.2157 7.9664 77.6157 8.0144C78.0158 8.0624 78.3998 8.13175 78.7679 8.22243C79.1412 8.30777 79.4907 8.41179 79.8161 8.53447C80.1415 8.65182 80.4242 8.78251 80.6642 8.92653L79.568 10.7108C79.0506 10.4707 78.5599 10.2947 78.0958 10.1827C77.6371 10.0707 77.1704 10.0147 76.6956 10.0147C76.1515 10.0147 75.6635 10.0867 75.2314 10.2307C74.7993 10.3694 74.4313 10.5668 74.1272 10.8228C73.8286 11.0735 73.5991 11.3723 73.4392 11.719C73.2844 12.0603 73.2071 12.4337 73.2071 12.8391C73.2071 13.2445 73.2898 13.6206 73.4551 13.9673C73.6258 14.3086 73.8632 14.6047 74.1673 14.8554C74.4766 15.1007 74.8473 15.2954 75.2793 15.4395C75.7168 15.5781 76.2021 15.6475 76.7356 15.6475C77.3224 15.6475 77.8745 15.5648 78.3918 15.3995C78.9145 15.2341 79.4 15.0127 79.8481 14.7354L80.9442 16.5196C80.6615 16.6903 80.3547 16.8504 80.0241 16.9996C79.6933 17.1437 79.3387 17.269 78.9599 17.3757C78.5865 17.4824 78.1918 17.565 77.7757 17.6238C77.3651 17.6878 76.9383 17.7198 76.4955 17.7198C75.5941 17.7198 74.786 17.5971 74.0712 17.3518C73.3564 17.1063 72.751 16.7676 72.2549 16.3356C71.7589 15.8982 71.3775 15.3834 71.1108 14.7914C70.8494 14.1993 70.7188 13.5539 70.7188 12.8551Z" fill="#9CA3AF"/>
<path d="M82.4844 4.27832H84.8528V12.1194L89.2694 8.11086H92.8939L87.9572 12.5275L93.206 17.5522H89.6534L86.1409 14.1518L84.8528 15.3039V17.5522H82.4844V4.27832Z" fill="#9CA3AF"/>
</g>
<defs>
<clipPath id="clip0_14604_23244">
<rect width="93.5" height="22" fill="white"/>
</clipPath>
</defs>
</svg>
