<svg width="114" height="22" viewBox="0 0 114 22" fill="none" xmlns="http://www.w3.org/2000/svg">
<mask id="mask0_14604_23204" style="mask-type:luminance" maskUnits="userSpaceOnUse" x="0" y="0" width="114" height="22">
<path d="M0.625 0.669922H113.209V21.6856H0.625V0.669922Z" fill="white"/>
</mask>
<g mask="url(#mask0_14604_23204)">
<path d="M21.6408 0.669922V21.6857H8.7334V17.4147H17.6525V13.2568H8.7334V9.15541H17.6525V5.05409H4.66975V21.6857H0.625V0.669922H21.6408Z" fill="#9CA3AF"/>
<path d="M31.3984 18.3077V4.64746H39.4677V7.02825H33.7793V9.79931H38.5311V12.1801H33.7793V18.3077H31.3984Z" fill="#9CA3AF"/>
<path d="M44.402 18.5616C43.5043 18.5616 42.6847 18.3306 41.9432 17.8688C41.2082 17.4069 40.6195 16.7889 40.1772 16.0149C39.7412 15.2343 39.5234 14.3725 39.5234 13.4292C39.5234 12.7137 39.6503 12.0469 39.9039 11.429C40.1576 10.8045 40.5056 10.2581 40.9479 9.78972C41.3967 9.31484 41.9171 8.94406 42.5092 8.67739C43.1011 8.41072 43.732 8.27734 44.402 8.27734C45.2998 8.27734 46.1161 8.50829 46.8511 8.97011C47.5927 9.43194 48.1814 10.0532 48.6172 10.8338C49.0596 11.6143 49.2807 12.4795 49.2807 13.4292C49.2807 14.1383 49.1538 14.8018 48.9002 15.4197C48.6465 16.0376 48.2952 16.584 47.8464 17.0589C47.4041 17.5273 46.8869 17.8949 46.2949 18.1615C45.7095 18.4282 45.0785 18.5616 44.402 18.5616ZM44.402 16.1807C44.8769 16.1807 45.3029 16.0539 45.6802 15.8003C46.0575 15.5466 46.3536 15.2115 46.5682 14.7952C46.7894 14.3789 46.8999 13.9237 46.8999 13.4292C46.8999 12.9218 46.7861 12.46 46.5584 12.0436C46.3372 11.6209 46.0348 11.2859 45.651 11.0387C45.2737 10.785 44.8574 10.6581 44.402 10.6581C43.9337 10.6581 43.5109 10.785 43.1336 11.0387C42.7563 11.2923 42.4571 11.6306 42.2359 12.0534C42.0147 12.4762 41.9042 12.9348 41.9042 13.4292C41.9042 13.9431 42.018 14.4082 42.2457 14.8246C42.4733 15.2408 42.7758 15.5726 43.1531 15.8197C43.5369 16.0604 43.9532 16.1807 44.402 16.1807Z" fill="#9CA3AF"/>
<path d="M56.7294 10.9704C56.5537 10.8533 56.3618 10.7589 56.1537 10.6874C55.952 10.6159 55.7275 10.5801 55.4805 10.5801C55.0055 10.5801 54.5957 10.7037 54.251 10.9509C53.9127 11.198 53.6525 11.5298 53.4704 11.9462C53.2883 12.3559 53.1972 12.8113 53.1972 13.3121V18.3079H50.7969V8.55057H53.1777V9.70193C53.5029 9.27261 53.89 8.9311 54.3388 8.67741C54.7941 8.42372 55.308 8.29688 55.8804 8.29688C56.1015 8.29688 56.313 8.30341 56.5147 8.31639C56.7228 8.32937 56.9212 8.36517 57.1099 8.42372L56.7294 10.9704Z" fill="#9CA3AF"/>
<path d="M58.2344 18.309V8.55168H60.6151V9.53717C60.9013 9.2184 61.2038 8.96148 61.5225 8.76633C61.8479 8.56466 62.2153 8.46387 62.6251 8.46387C63.2887 8.46387 63.8935 8.60369 64.44 8.88343C64.9929 9.15664 65.4678 9.54693 65.8645 10.0543C66.2614 9.54693 66.7363 9.15664 67.2891 8.88343C67.8421 8.60369 68.447 8.46387 69.104 8.46387C69.9431 8.46387 70.6912 8.672 71.3481 9.08833C72.0117 9.50466 72.5354 10.0641 72.919 10.7666C73.3029 11.4625 73.4948 12.2334 73.4948 13.0791V18.309H71.1139V13.0791C71.1139 12.6627 71.0295 12.2887 70.8603 11.957C70.6912 11.6187 70.4538 11.3488 70.148 11.1472C69.8488 10.9454 69.5008 10.8447 69.104 10.8447C68.7073 10.8447 68.3526 10.9454 68.0404 11.1472C67.7347 11.3488 67.4941 11.6187 67.3184 11.957C67.1427 12.2887 67.0549 12.6627 67.0549 13.0791V18.309H64.6741V13.0791C64.6741 12.6627 64.5831 12.2887 64.401 11.957C64.2253 11.6187 63.9814 11.3488 63.6691 11.1472C63.3635 10.9454 63.0154 10.8447 62.6251 10.8447C62.2478 10.8447 61.9064 10.9487 61.6006 11.1568C61.2949 11.365 61.0542 11.6415 60.8786 11.9862C60.7029 12.331 60.6151 12.7083 60.6151 13.1181V18.309H58.2344Z" fill="#9CA3AF"/>
<path d="M76.2266 18.3077V4.64746H81.2027C81.9248 4.64746 82.5748 4.79706 83.1542 5.09629C83.7397 5.38901 84.2012 5.81182 84.5398 6.36475C84.8843 6.91115 85.0569 7.55838 85.0569 8.30645C85.0569 8.63819 85.0081 8.97318 84.9105 9.31145C84.8129 9.64973 84.6629 9.95543 84.4617 10.2286C84.2599 10.4953 83.9994 10.6938 83.6812 10.8238C84.1037 10.9279 84.4482 11.1166 84.7154 11.3898C84.9819 11.6629 85.1898 11.9849 85.3398 12.3557C85.4892 12.7199 85.5898 13.094 85.6423 13.4778C85.7009 13.8551 85.7301 14.2064 85.7301 14.5316C85.7301 15.2537 85.5508 15.8976 85.1935 16.4636C84.8355 17.0295 84.3544 17.4783 83.7495 17.8101C83.1505 18.1418 82.487 18.3077 81.7589 18.3077H76.2266ZM78.6073 16.2684H81.515C81.9053 16.2684 82.2565 16.174 82.5688 15.9855C82.881 15.7969 83.1309 15.5366 83.3201 15.2048C83.5085 14.8731 83.6031 14.4958 83.6031 14.073C83.6031 13.7087 83.5085 13.364 83.3201 13.0387C83.1309 12.7136 82.881 12.4501 82.5688 12.2484C82.2565 12.0467 81.9053 11.946 81.515 11.946H78.6073V16.2684ZM78.6073 9.93592H80.9296C81.4106 9.93592 81.8205 9.78633 82.159 9.48709C82.5035 9.18783 82.6761 8.79108 82.6761 8.29669C82.6761 7.7698 82.5035 7.373 82.159 7.1063C81.8205 6.83309 81.4106 6.6965 80.9296 6.6965H78.6073V9.93592Z" fill="#9CA3AF"/>
<path d="M91.9724 18.5616C91.0748 18.5616 90.2551 18.3306 89.5135 17.8688C88.7787 17.4069 88.1903 16.7889 87.7475 16.0149C87.3122 15.2343 87.0938 14.3725 87.0938 13.4292C87.0938 12.7137 87.2206 12.0469 87.4742 11.429C87.728 10.8045 88.0763 10.2581 88.5184 9.78972C88.9672 9.31484 89.488 8.94406 90.0795 8.67739C90.6717 8.41072 91.3029 8.27734 91.9724 8.27734C92.8701 8.27734 93.6867 8.50829 94.4215 8.97011C95.163 9.43194 95.7523 10.0532 96.1876 10.8338C96.6304 11.6143 96.8511 12.4795 96.8511 13.4292C96.8511 14.1383 96.7242 14.8018 96.4705 15.4197C96.2168 16.0376 95.8656 16.584 95.4167 17.0589C94.9747 17.5273 94.4575 17.8949 93.8653 18.1615C93.2799 18.4282 92.6494 18.5616 91.9724 18.5616ZM91.9724 16.1807C92.4476 16.1807 92.8738 16.0539 93.2507 15.8003C93.6282 15.5466 93.9239 15.2115 94.1385 14.7952C94.3599 14.3789 94.4702 13.9237 94.4702 13.4292C94.4702 12.9218 94.3569 12.46 94.1288 12.0436C93.9081 11.6209 93.6056 11.2859 93.2213 11.0387C92.8445 10.785 92.428 10.6581 91.9724 10.6581C91.5041 10.6581 91.0815 10.785 90.7039 11.0387C90.3272 11.2923 90.0277 11.6306 89.8062 12.0534C89.5856 12.4762 89.4745 12.9348 89.4745 13.4292C89.4745 13.9431 89.5887 14.4082 89.816 14.8246C90.0442 15.2408 90.3467 15.5726 90.7234 15.8197C91.1078 16.0604 91.5236 16.1807 91.9724 16.1807Z" fill="#9CA3AF"/>
<path d="M98.3672 18.3088V3.67285H100.748V18.3088H98.3672Z" fill="#9CA3AF"/>
<path d="M110.533 3.67285H112.913V18.3088H110.533V17.0891C110.22 17.525 109.827 17.8795 109.352 18.1527C108.877 18.4259 108.327 18.5625 107.703 18.5625C106.994 18.5625 106.331 18.4292 105.712 18.1624C105.094 17.8958 104.548 17.5283 104.073 17.0599C103.605 16.585 103.238 16.0386 102.97 15.4207C102.704 14.8027 102.57 14.1392 102.57 13.4302C102.57 12.7212 102.704 12.0576 102.97 11.4397C103.238 10.8217 103.605 10.2785 104.073 9.8102C104.548 9.33532 105.094 8.96454 105.712 8.69786C106.331 8.43119 106.994 8.29781 107.703 8.29781C108.327 8.29781 108.877 8.43442 109.352 8.70762C109.827 8.9743 110.22 9.32886 110.533 9.77117V3.67285ZM107.732 16.2695C108.239 16.2695 108.688 16.1427 109.078 15.889C109.469 15.6353 109.775 15.2938 109.996 14.8645C110.217 14.4287 110.327 13.9505 110.327 13.4302C110.327 12.9033 110.217 12.4251 109.996 11.9958C109.775 11.56 109.466 11.2153 109.069 10.9616C108.678 10.7079 108.233 10.581 107.732 10.581C107.231 10.581 106.776 10.7111 106.366 10.9713C105.956 11.225 105.628 11.5665 105.38 11.9958C105.134 12.4251 105.01 12.9033 105.01 13.4302C105.01 13.957 105.134 14.4352 105.38 14.8645C105.628 15.2938 105.956 15.6353 106.366 15.889C106.782 16.1427 107.238 16.2695 107.732 16.2695Z" fill="#9CA3AF"/>
</g>
</svg>
