<svg width="31" height="28" viewBox="0 0 31 28" fill="none" xmlns="http://www.w3.org/2000/svg">
<g filter="url(#filter0_i_14604_24198)">
<path d="M8.82087 13.6242L2.08587 16.9752C0.971375 17.5302 0.971375 19.1307 2.08587 19.6857L14.4609 25.8432C14.8809 26.0517 15.3714 26.0517 15.7899 25.8432L28.1649 19.6857C29.2794 19.1307 29.2794 17.5287 28.1649 16.9752L21.4299 13.6242M8.82087 13.6242L2.08587 10.2732C0.971375 9.71822 0.971375 8.11772 2.08587 7.56272L14.4609 1.40522C14.6675 1.30311 14.8949 1.25 15.1254 1.25C15.3559 1.25 15.5832 1.30311 15.7899 1.40522L28.1649 7.56272C29.2794 8.11772 29.2794 9.71822 28.1649 10.2732L21.4299 13.6242M8.82087 13.6242L14.4609 16.4307C14.8809 16.6392 15.3714 16.6392 15.7899 16.4307L21.4299 13.6242" stroke="#9CA3AF" stroke-width="2.5" stroke-linecap="round" stroke-linejoin="round"/>
</g>
<defs>
<filter id="filter0_i_14604_24198" x="0" y="0" width="30.25" height="27.7495" filterUnits="userSpaceOnUse" color-interpolation-filters="sRGB">
<feFlood flood-opacity="0" result="BackgroundImageFix"/>
<feBlend mode="normal" in="SourceGraphic" in2="BackgroundImageFix" result="shape"/>
<feColorMatrix in="SourceAlpha" type="matrix" values="0 0 0 0 0 0 0 0 0 0 0 0 0 0 0 0 0 0 127 0" result="hardAlpha"/>
<feOffset dy="1"/>
<feGaussianBlur stdDeviation="0.25"/>
<feComposite in2="hardAlpha" operator="arithmetic" k2="-1" k3="1"/>
<feColorMatrix type="matrix" values="0 0 0 0 0.121569 0 0 0 0 0.160784 0 0 0 0 0.215686 0 0 0 0.4 0"/>
<feBlend mode="normal" in2="shape" result="effect1_innerShadow_14604_24198"/>
</filter>
</defs>
</svg>
