<svg width="16" height="15" viewBox="0 0 16 15" fill="none" xmlns="http://www.w3.org/2000/svg">
<path fill-rule="evenodd" clip-rule="evenodd" d="M14.7198 1.11015L11.4225 4.40607C11.1686 4.65988 10.7565 4.65993 10.5027 4.40607C10.2492 4.15218 10.2496 3.74068 10.5034 3.48697L13.8 0.190357C14.0538 -0.0634419 14.4659 -0.0634627 14.7198 0.190357C14.9736 0.444208 14.9736 0.85633 14.7198 1.11015ZM10.2242 0.582741L9.09998 1.70831C8.84622 1.96212 8.84558 2.37358 9.09929 2.62741C9.35314 2.88121 9.76526 2.88124 10.0191 2.62741L11.144 1.50253C11.3978 1.24868 11.3978 0.836559 11.144 0.582741C10.8901 0.328942 10.478 0.328921 10.2242 0.582741ZM7.5416 1.97036C7.43204 1.7487 7.20588 1.60805 6.95859 1.60805C6.74229 1.60811 6.54244 1.71595 6.42246 1.89126L6.37558 1.97036L4.57676 5.61391L0.556249 6.19887C0.311531 6.23455 0.108261 6.40604 0.0318345 6.64126C-0.0445426 6.87641 0.0189785 7.13459 0.195897 7.30727L3.10508 10.1442L2.41953 14.1481C2.37774 14.3918 2.47747 14.6384 2.67734 14.7838C2.87745 14.9292 3.14295 14.9487 3.36191 14.8336L6.95859 12.942L10.5553 14.8336C10.7743 14.9488 11.0397 14.9293 11.2398 14.7838C11.4399 14.6384 11.5404 14.3919 11.4986 14.1481L10.8111 10.1442L13.7213 7.30727C13.8984 7.13457 13.9618 6.87651 13.8854 6.64126C13.8089 6.40597 13.6058 6.23445 13.3609 6.19887L9.33945 5.61391L7.5416 1.97036ZM5.10312 6.85219C5.31459 6.82135 5.49771 6.68832 5.59238 6.49673L6.95859 3.7272L8.32578 6.49673C8.42053 6.68829 8.60352 6.82146 8.81504 6.85219L11.8707 7.29555L9.65976 9.4518C9.50662 9.60113 9.4361 9.81617 9.47226 10.027L9.99375 13.07L7.26133 11.6334C7.09573 11.5464 6.90177 11.535 6.7291 11.6002L6.65586 11.6334L3.92246 13.07L4.44492 10.027C4.48105 9.81632 4.41132 9.60112 4.2584 9.4518L2.04648 7.29555L5.10312 6.85219ZM12.8442 4.32799L13.9684 3.20242C14.2222 2.9486 14.6344 2.94862 14.8882 3.20242C15.142 3.45624 15.142 3.86836 14.8882 4.12221L13.7633 5.24709C13.5095 5.50091 13.0974 5.50089 12.8435 5.24709C12.5898 4.99326 12.5905 4.5818 12.8442 4.32799Z" fill="#6B7280"/>
</svg>
