<svg width="102" height="38" viewBox="0 0 102 38" fill="none" xmlns="http://www.w3.org/2000/svg">
<path d="M59.1094 10.0826L64.8501 7.94132L59.1094 5.73882V2.74097L68.9419 6.71771V9.16494L59.1094 13.1417V10.0826Z" fill="black"/>
<path d="M4.80665 29.0489C2.73627 29.0489 1.03125 28.0089 1.03125 25.684V25.5616C1.03125 22.7473 3.46699 21.7684 6.45078 21.7684H7.85133V21.2178C7.85133 20.0554 7.36418 19.3824 6.14631 19.3824C5.05023 19.3824 4.50219 19.9942 4.44129 20.8507H1.39661C1.64019 18.2811 3.64967 17.0575 6.32899 17.0575C9.06921 17.0575 11.0787 18.2199 11.0787 21.0954V28.8042H7.97312V27.4582C7.36418 28.3148 6.32899 29.0489 4.80665 29.0489ZM7.85133 25.011V23.9098H6.57257C4.98933 23.9098 4.19772 24.338 4.19772 25.3781V25.5004C4.19772 26.2958 4.68487 26.8464 5.78095 26.8464C6.87704 26.7852 7.85133 26.1734 7.85133 25.011ZM18.325 29.0489C15.1586 29.0489 12.8446 27.0911 12.8446 23.1756V22.992C12.8446 19.0765 15.2804 16.9963 18.325 16.9963C20.9435 16.9963 23.0747 18.3423 23.3183 21.3402H20.2736C20.0909 20.2389 19.482 19.5047 18.3859 19.5047C17.0463 19.5047 16.072 20.606 16.072 22.8697V23.2368C16.072 25.5616 16.9245 26.6017 18.3859 26.6017C19.482 26.6017 20.2736 25.8064 20.4563 24.5216H23.3792C23.1965 27.2135 21.4306 29.0489 18.325 29.0489ZM30.2602 29.0489C27.0937 29.0489 24.7798 27.0911 24.7798 23.1756V22.992C24.7798 19.0765 27.2155 16.9963 30.2602 16.9963C32.8786 16.9963 35.0099 18.3423 35.2535 21.3402H32.2088C32.0261 20.2389 31.4172 19.5047 30.3211 19.5047C28.9814 19.5047 28.0071 20.606 28.0071 22.8697V23.2368C28.0071 25.5616 28.8596 26.6017 30.3211 26.6017C31.4172 26.6017 32.2088 25.8064 32.3915 24.5216H35.3143C35.1317 27.2135 33.3658 29.0489 30.2602 29.0489ZM42.2562 29.0489C38.968 29.0489 36.7149 27.0911 36.7149 23.2368V22.992C36.7149 19.1377 39.0897 16.9963 42.1953 16.9963C45.0573 16.9963 47.4322 18.587 47.4322 22.4414V23.8486H39.9423C40.064 25.9287 40.9775 26.7241 42.3171 26.7241C43.535 26.7241 44.2048 26.0511 44.4484 25.2557H47.4322C47.0668 27.397 45.24 29.0489 42.2562 29.0489ZM40.0032 21.7072H44.2657C44.2048 19.9942 43.4132 19.26 42.1344 19.26C41.1601 19.3212 40.2467 19.8718 40.0032 21.7072ZM49.3808 17.3022H52.6081V19.0153C53.1562 17.914 54.3132 17.0575 56.0791 17.0575C58.1494 17.0575 59.55 18.3423 59.55 21.0954V28.8042H56.3226V21.5849C56.3226 20.2389 55.7746 19.6271 54.6176 19.6271C53.5215 19.6271 52.6081 20.3001 52.6081 21.7684V28.8042H49.3808V17.3022ZM65.4567 13.8149V17.3022H67.6488V19.6883H65.4567V25.1334C65.4567 25.9899 65.822 26.4182 66.6137 26.4182C67.1008 26.4182 67.4053 26.357 67.7097 26.2346V28.743C67.3444 28.8654 66.6746 28.9877 65.8829 28.9877C63.3863 28.9877 62.2293 27.8253 62.2293 25.5004V19.6883H60.8897V17.3022H62.2293V15.1609L65.4567 13.8149ZM79.7058 28.8042H76.5393V27.0911C75.9913 28.1924 74.8952 29.0489 73.1902 29.0489C71.1198 29.0489 69.5974 27.7641 69.5974 25.0722V17.3022H72.8248V24.6439C72.8248 25.9899 73.3728 26.6017 74.4689 26.6017C75.565 26.6017 76.4784 25.8675 76.4784 24.4604V17.3022H79.7058V28.8042ZM82.0806 17.3022H85.308V19.4436C85.9778 17.914 87.0739 17.1799 88.7789 17.1799V20.3613C86.5868 20.3613 85.308 21.0343 85.308 22.9309V28.8654H82.0806V17.3022ZM95.2945 29.0489C92.0063 29.0489 89.7532 27.0911 89.7532 23.2368V22.992C89.7532 19.1377 92.1281 16.9963 95.2337 16.9963C98.0956 16.9963 100.471 18.587 100.471 22.4414V23.8486H93.0415C93.1633 25.9287 94.0767 26.7241 95.4163 26.7241C96.6342 26.7241 97.304 26.0511 97.5476 25.2557H100.531C100.044 27.397 98.2783 29.0489 95.2945 29.0489ZM92.9806 21.7072H97.304C97.2431 19.9942 96.4515 19.26 95.1728 19.26C94.1985 19.3212 93.2851 19.8718 92.9806 21.7072Z" fill="black"/>
</svg>
